<svg width="80" height="80" viewBox="0 0 80 80" fill="none" xmlns="http://www.w3.org/2000/svg">
<rect width="80" height="80" rx="40" fill="#D5E4F7"/>
<path d="M33.1644 48.32H21.4844L19.2044 55H15.4844L25.6044 27H29.2444L39.4844 55H35.5244L33.1644 48.32ZM22.5644 45.2H32.0844L27.3244 31.48L22.5644 45.2ZM47.26 44.52C47.26 45.64 47.2333 46.64 47.18 47.52C47.1267 48.3733 47.06 49.28 46.98 50.24C47.4333 49.2 47.9133 48.1733 48.42 47.16C48.9267 46.1467 49.4333 45.2 49.94 44.32L59.74 27H63.34V55H59.74V37.44C59.74 36.4 59.7533 35.4533 59.78 34.6C59.8333 33.7467 59.8867 32.92 59.94 32.12C59.62 32.8933 59.2867 33.6267 58.94 34.32C58.5933 34.9867 58.18 35.7467 57.7 36.6L47.22 55H43.66V27H47.26V44.52Z" fill="#212830"/>
</svg>
